{"title":"Personal Effects.2009.DVDRip.XViD.AC3(5.1).SWESUB.avi","uid":5501685,"size":1465221706,"categoryP":"video","categoryS":"movies","magnet":"?xt=urn:btih:873b294f280c7ae3e21a6801e5e89ed021b65069&amp;dn=Personal+Effects.2009.DVDRip.XViD.AC3%285.1%29.SWESUB.avi&amp;tr=udp%3A%2F%2Ftracker.openbittorrent.com%3A80&amp;tr=udp%3A%2F%2Fopen.demonii.com%3A1337&amp;tr=udp%3A%2F%2Ftracker.coppersurfer.tk%3A6969&amp;tr=udp%3A%2F%2Fexodus.desync.com%3A6969","seeders":2,"leechers":0,"uploader":"Zen_Bud","files":-1,"time":1271581301,"description":"General\nComplete name                    : Personal Effects .avi\nFormat                           : AVI\nFile size                        : 1.36 GiB\nDuration                         : 1h 45mn\nOverall bit rate                 : 1 848 Kbps\n\nVideo\nID                               : 0\nFormat                           : MPEG-4 Visual\nCodec ID/Hint                    : XviD\nDuration                         : 1h 45mn\nBit rate                         : 1 389 Kbps\nWidth                            : 720 pixels\nHeight                           : 576 pixels\nDisplay aspect ratio             : 16:9\nResolution                       : 8 bits\nColorimetry                      : 4:2:0\nScan type                        : Progressive\nBits/(Pixel*Frame)               : 0.134\nStream size                      : 1.03 GiB (75%)\nWriting library                  : XviD 1.1.2 (UTC 2006-11-01)\n\nAudio\nID                               : 1\nFormat                           : AC-3\nFormat/Info                      : Audio Coding 3\nCodec ID                         : 2000\nDuration                         : 1h 45mn\nBit rate mode                    : Constant\nBit rate                         : 448 Kbps\nChannel(s)                       : 6 channels\nChannel positions                : Front: L C R, Side: L R, LFE\nSampling rate                    : 48.0 KHz\nStream size                      : 339 MiB (24%)\n\n\n","torrent":{"xt":"urn:btih:873b294f280c7ae3e21a6801e5e89ed021b65069","amp;dn":"Personal+Effects.2009.DVDRip.XViD.AC3%285.1%29.SWESUB.avi","amp;tr":["udp%3A%2F%2Ftracker.openbittorrent.com%3A80","udp%3A%2F%2Fopen.demonii.com%3A1337","udp%3A%2F%2Ftracker.coppersurfer.tk%3A6969","udp%3A%2F%2Fexodus.desync.com%3A6969"],"infoHash":"873b294f280c7ae3e21a6801e5e89ed021b65069","infoHashBuffer":{"type":"Buffer","data":[135,59,41,79,40,12,122,227,226,26,104,1,229,232,158,208,33,182,80,105]},"announce":[],"urlList":[]}}